REM MD5 2d0a8edf151a3e90dcd4368166073d3b
FILE "Air Combat (Europe).bin" BINARY
  TRACK 01 MODE2/2352
    INDEX 01 00:00:00
  TRACK 02 AUDIO
    INDEX 00 10:06:30
    INDEX 01 10:08:30
  TRACK 03 AUDIO
    INDEX 00 13:34:50
    INDEX 01 13:36:50
  TRACK 04 AUDIO
    INDEX 00 16:17:07
    INDEX 01 16:19:07
  TRACK 05 AUDIO
    INDEX 00 18:50:22
    INDEX 01 18:52:22
  TRACK 06 AUDIO
    INDEX 00 21:34:49
    INDEX 01 21:36:49
  TRACK 07 AUDIO
    INDEX 00 22:50:35
    INDEX 01 22:52:35
  TRACK 08 AUDIO
    INDEX 00 24:49:43
    INDEX 01 24:51:43
  TRACK 09 AUDIO
    INDEX 00 27:36:29
    INDEX 01 27:38:29
  TRACK 10 AUDIO
    INDEX 00 30:35:54
    INDEX 01 30:37:54
  TRACK 11 AUDIO
    INDEX 00 33:05:25
    INDEX 01 33:07:25
  TRACK 12 AUDIO
    INDEX 00 35:09:56
    INDEX 01 35:11:56
  TRACK 13 AUDIO
    INDEX 00 36:35:12
    INDEX 01 36:37:12
  TRACK 14 AUDIO
    INDEX 00 38:01:13
    INDEX 01 38:03:13
  TRACK 15 AUDIO
    INDEX 00 38:13:71
    INDEX 01 38:15:71
  TRACK 16 AUDIO
    INDEX 00 39:22:42
    INDEX 01 39:24:42
  TRACK 17 AUDIO
    INDEX 00 39:36:43
    INDEX 01 39:38:43
  TRACK 18 AUDIO
    INDEX 00 41:37:74
    INDEX 01 41:39:74
  TRACK 19 AUDIO
    INDEX 00 44:09:30
    INDEX 01 44:11:30
  TRACK 20 AUDIO
    INDEX 00 45:01:31
    INDEX 01 45:03:31
  TRACK 21 AUDIO
    INDEX 00 46:32:35
    INDEX 01 46:34:35
  TRACK 22 AUDIO
    INDEX 00 46:48:15
    INDEX 01 46:50:15
  TRACK 23 AUDIO
    INDEX 00 46:54:53
    INDEX 01 46:56:53
  TRACK 24 AUDIO
    INDEX 00 47:06:48
    INDEX 01 47:08:48
  TRACK 25 AUDIO
    INDEX 00 47:13:11
    INDEX 01 47:15:11
  TRACK 26 AUDIO
    INDEX 00 47:23:46
    INDEX 01 47:25:46
  TRACK 27 AUDIO
    INDEX 00 47:30:28
    INDEX 01 47:32:28
  TRACK 28 AUDIO
    INDEX 00 47:36:67
    INDEX 01 47:38:67
  TRACK 29 AUDIO
    INDEX 00 47:49:46
    INDEX 01 47:51:46
  TRACK 30 AUDIO
    INDEX 00 47:58:15
    INDEX 01 48:00:15
  TRACK 31 AUDIO
    INDEX 00 48:14:51
    INDEX 01 48:16:51
  TRACK 32 AUDIO
    INDEX 00 48:26:63
    INDEX 01 48:28:63
  TRACK 33 AUDIO
    INDEX 00 48:33:26
    INDEX 01 48:35:26
  TRACK 34 AUDIO
    INDEX 00 48:39:70
    INDEX 01 48:41:70
  TRACK 35 AUDIO
    INDEX 00 48:51:36
    INDEX 01 48:53:36
  TRACK 36 AUDIO
    INDEX 00 48:58:17
    INDEX 01 49:00:17
  TRACK 37 AUDIO
    INDEX 00 49:07:64
    INDEX 01 49:09:64
  TRACK 38 AUDIO
    INDEX 00 49:32:47
    INDEX 01 49:34:47
  TRACK 39 AUDIO
    INDEX 00 49:39:10
    INDEX 01 49:41:10
  TRACK 40 AUDIO
    INDEX 00 49:46:52
    INDEX 01 49:48:52
  TRACK 41 AUDIO
    INDEX 00 49:57:14
    INDEX 01 49:59:14
  TRACK 42 AUDIO
    INDEX 00 50:03:52
    INDEX 01 50:05:52
  TRACK 43 AUDIO
    INDEX 00 50:10:15
    INDEX 01 50:12:15
  TRACK 44 AUDIO
    INDEX 00 50:34:16
    INDEX 01 50:36:16
  TRACK 45 AUDIO
    INDEX 00 50:47:32
    INDEX 01 50:49:32
  TRACK 46 AUDIO
    INDEX 00 50:53:70
    INDEX 01 50:55:70
  TRACK 47 AUDIO
    INDEX 00 51:00:48
    INDEX 01 51:02:48
  TRACK 48 AUDIO
    INDEX 00 51:18:71
    INDEX 01 51:20:71
  TRACK 49 AUDIO
    INDEX 00 51:25:34
    INDEX 01 51:27:34
  TRACK 50 AUDIO
    INDEX 00 51:40:20
    INDEX 01 51:42:20
  TRACK 51 AUDIO
    INDEX 00 51:46:58
    INDEX 01 51:48:58
  TRACK 52 AUDIO
    INDEX 00 51:57:43
    INDEX 01 51:59:43
  TRACK 53 AUDIO
    INDEX 00 52:05:17
    INDEX 01 52:07:17
  TRACK 54 AUDIO
    INDEX 00 52:11:55
    INDEX 01 52:13:55
  TRACK 55 AUDIO
    INDEX 00 52:18:18
    INDEX 01 52:20:18
  TRACK 56 AUDIO
    INDEX 00 52:24:57
    INDEX 01 52:26:57
  TRACK 57 AUDIO
    INDEX 00 52:31:21
    INDEX 01 52:33:21
  TRACK 58 AUDIO
    INDEX 00 52:37:72
    INDEX 01 52:39:72
  TRACK 59 AUDIO
    INDEX 00 52:50:31
    INDEX 01 52:52:31
  TRACK 60 AUDIO
    INDEX 00 52:57:12
    INDEX 01 52:59:12
  TRACK 61 AUDIO
    INDEX 00 53:05:43
    INDEX 01 53:07:43
  TRACK 62 AUDIO
    INDEX 00 53:25:45
    INDEX 01 53:27:45
  TRACK 63 AUDIO
    INDEX 00 53:37:38
    INDEX 01 53:39:38
REM LEADOUT 57:40:09
